<svg width="1600" height="900" viewBox="0 0 1600 900" fill="none" xmlns="http://www.w3.org/2000/svg">
  <defs>
    <linearGradient id="bg" x1="0" y1="0" x2="1600" y2="900" gradientUnits="userSpaceOnUse">
      <stop stop-color="#0E7490"/>
      <stop offset="1" stop-color="#0F766E"/>
    </linearGradient>
    <linearGradient id="wave1" x1="0" y1="0" x2="1600" y2="0" gradientUnits="userSpaceOnUse">
      <stop stop-color="#67E8F9"/>
      <stop offset="1" stop-color="#A7F3D0"/>
    </linearGradient>
    <linearGradient id="wave2" x1="0" y1="0" x2="1600" y2="0" gradientUnits="userSpaceOnUse">
      <stop stop-color="#22D3EE"/>
      <stop offset="1" stop-color="#5EEAD4"/>
    </linearGradient>
  </defs>
  <rect width="1600" height="900" fill="url(#bg)"/>
  <circle cx="250" cy="170" r="78" fill="#F0FDFA" fill-opacity="0.25"/>
  <circle cx="1340" cy="140" r="55" fill="#E0F2FE" fill-opacity="0.3"/>
  <path d="M0 530C150 470 300 470 450 530C600 590 750 590 900 530C1050 470 1200 470 1350 530C1450 570 1533 580 1600 575V900H0V530Z" fill="url(#wave1)" fill-opacity="0.48"/>
  <path d="M0 610C150 560 300 560 450 610C600 660 750 660 900 610C1050 560 1200 560 1350 610C1450 640 1533 650 1600 645V900H0V610Z" fill="url(#wave2)" fill-opacity="0.56"/>
  <path d="M0 690C130 660 260 660 390 690C520 720 650 720 780 690C910 660 1040 660 1170 690C1300 720 1430 720 1560 690L1600 680V900H0V690Z" fill="#ECFEFF" fill-opacity="0.34"/>
</svg>
